<svg xmlns="http://www.w3.org/2000/svg" width="386" height="513" viewBox="0 0 386 513"><g id="others"><path id="2" d="M 58.656,386.546 C 58.194,385.342 55.196,385.127 41.215,385.296 C 30.490,385.426 24.333,385.135 24.333,384.500 C 24.333,383.229 23.279,383.262 88.500,382.453 C 118.750,382.078 143.928,381.373 144.450,380.886 C 145.570,379.842 124.622,379.843 75.500,380.890 C 56.250,381.300 39.150,381.362 37.500,381.028 C 37.500,381.028 34.500,380.421 34.500,380.421 C 34.500,380.421 33.833,342.960 33.833,342.960 C 30.737,169.041 30.164,70.209 32.250,69.531 C 32.938,69.307 64.325,68.870 102,68.559 C 139.675,68.248 174.325,67.775 179,67.506 C 183.675,67.237 216.750,66.726 252.500,66.371 C 288.250,66.016 324.155,65.612 332.290,65.474 C 343.510,65.284 347.400,65.543 348.406,66.549 C 349.180,67.323 350.013,71.545 350.405,76.688 C 351.318,88.660 352.838,171.409 353.497,245 C 353.795,278.275 354.246,310 354.500,315.500 C 354.754,321 354.971,337.289 354.981,351.698 C 354.981,351.698 355,377.895 355,377.895 C 355,377.895 360.250,378.198 360.250,378.198 C 363.138,378.364 365.275,378.837 365,379.249 C 364.432,380.100 324.737,380.859 261,381.240 C 237.075,381.383 217.270,381.803 216.988,382.174 C 216.706,382.545 189.706,383.149 156.988,383.516 C 124.270,383.883 92.775,384.393 87,384.650 C 81.225,384.907 75.375,385.100 74,385.080 C 63.723,384.930 62.427,385.074 61.390,386.487 C 60.001,388.380 59.365,388.394 58.656,386.546M 153.500,377.500 C 155.150,377.169 168.609,376.808 183.410,376.699 C 183.410,376.699 210.320,376.500 210.320,376.500 C 210.320,376.500 211.555,372.500 211.555,372.500 C 212.543,369.300 212.814,369 212.910,371 C 213.115,375.274 214.288,376.058 220.578,376.128 C 233.080,376.268 240.402,375.855 242.167,374.911 C 244.178,374.965 247.864,374.965 248.934,374.965 C 251.162,376.157 260.301,376.366 261.417,375.250 C 262.436,374.231 264.368,374.246 265.098,375.279 C 266.214,376.858 350.486,375.773 352.202,374.157 C 353.288,373.135 353.315,369.742 352.639,319 C 352.291,292.875 351.753,251.250 351.442,226.500 C 351.131,201.750 350.679,178.166 350.438,174.092 C 349.890,164.846 347.675,160.500 343.508,160.500 C 341.098,160.500 340.490,161.030 339.785,163.750 C 338.866,167.298 337.887,167.773 336.053,165.564 C 334.067,163.171 329.425,162.676 326.564,164.550 C 324.196,166.101 323.811,166.106 321.535,164.615 C 320.179,163.727 318.140,163 317.003,163 C 313.298,161.525 313.298,156.730 311.986,161.037 C 309.882,164.985 307.865,165.920 301.762,165.777 C 298.606,165.703 295.733,165.933 295.377,166.289 C 295.021,166.645 295.220,168.188 295.818,169.718 C 296.416,171.248 297.203,175.075 297.565,178.221 C 298.199,183.727 298.123,183.987 295.550,185.159 C 293.119,186.266 292.674,186.124 290.653,183.589 C 289.028,181.551 287.724,180.893 285.812,181.144 C 284.238,181.350 282.350,180.721 281.074,179.567 C 279.499,178.142 278.662,177.938 277.824,178.776 C 276.986,179.614 278.172,181.498 282.427,186.094 C 285.579,189.498 288.557,193.334 289.045,194.618 C 289.579,196.023 289.448,203.831 288.716,214.226 C 288.716,214.226 287.500,231.500 287.500,231.500 C 287.500,231.500 287,213.500 287,213.500 C 286.690,202.331 286.052,194.741 285.318,193.500 C 284.668,192.400 279.830,187.234 274.568,182.020 C 274.568,182.020 265,172.540 265,172.540 C 265,172.540 265,167.399 265,167.399 C 265,162.321 265.104,162.149 273.550,153.176 C 273.550,153.176 282.100,144.094 282.100,144.094 C 282.100,144.094 280.498,140.995 280.498,140.995 C 277.573,135.339 276.384,135.822 265.785,146.976 C 260.381,152.663 255.694,158.371 255.370,159.661 C 255.046,160.951 254.951,165.361 255.158,169.462 C 255.158,169.462 255.535,176.918 255.535,176.918 C 255.535,176.918 266.267,187.810 266.267,187.810 C 275.122,196.796 276.985,199.209 275.966,201.619 C 274.985,198.343 271.257,194 269.426,194 C 268.752,194 264.341,190.141 259.625,185.425 C 251.875,177.675 249,176.003 249,179.245 C 249,179.865 249.933,181.364 251.073,182.577 C 252.213,183.790 253.250,185.499 253.378,186.373 C 253.506,187.247 256.338,190.786 259.670,194.237 C 268.512,203.394 271.026,207.471 270.866,212.390 C 270.866,212.390 270.733,216.500 270.733,216.500 C 270.733,216.500 270.080,212 270.080,212 C 269.721,209.525 268.993,206.757 268.463,205.849 C 267.933,204.941 261.763,198.281 254.750,191.049 C 254.750,191.049 242,177.901 242,177.901 C 242,177.901 242,169.625 242,169.625 C 242,161.979 242.200,161.164 244.621,158.924 C 246.062,157.591 252.137,151.230 258.121,144.788 C 268.120,134.024 269,132.758 269,129.154 C 269,125.841 268.373,124.666 264.960,121.582 C 262.738,119.574 260.488,118.199 259.960,118.525 C 259.432,118.851 259,121.473 259,124.351 C 259,129.258 258.714,129.861 254.396,134.042 C 251.864,136.494 245.789,142.879 240.896,148.230 C 240.896,148.230 232,157.959 232,157.959 C 232,157.959 232,169.330 232,169.330 C 232,180.354 232.090,180.825 234.973,184.805 C 236.608,187.063 241.896,191.811 246.723,195.358 C 256.416,202.480 259.783,206.343 260.569,211.241 C 261.071,214.369 261.033,214.344 259.625,210.637 C 257.232,204.336 246.507,194.485 243.356,195.694 C 241.437,196.430 233.885,189.227 229.493,182.473 C 226.810,178.346 226.238,176.511 226.303,172.215 C 226.443,162.920 224.474,164.067 222.863,174.218 C 222.863,174.218 221.390,183.500 221.390,183.500 C 221.390,183.500 217.164,183.308 217.164,183.308 C 214.839,183.202 211.532,182.415 209.815,181.558 C 205.446,179.378 204.491,179.559 200.646,183.293 C 198.781,185.104 196.729,186.409 195.363,182.418 C 186.972,179.690 183.283,176.234 183.628,171.422 C 183.743,169.815 183.874,162.422 183.919,154.993 C 183.919,154.993 184,141.486 184,141.486 C 184,141.486 197.336,127.493 197.336,127.493 C 204.671,119.797 211.196,112.517 211.836,111.316 C 213.428,108.327 213.363,94.538 211.750,93.236 C 211.062,92.681 208.587,91.911 206.250,91.525 C 206.250,91.525 202,90.824 202,90.824 C 202,90.824 201.988,99.162 201.988,99.162 C 201.988,99.162 201.976,107.500 201.976,107.500 C 201.976,107.500 187.488,122.729 187.488,122.729 C 187.488,122.729 173,137.957 173,137.957 C 173,137.957 173,153.044 173,153.044 C 173,161.532 173.453,168.978 174.035,170.066 C 174.634,171.185 176.123,172 177.567,172 C 180.416,172 181.810,174.491 180.302,176.886 C 178.733,179.377 175.940,179.490 171,177.965 C 171,181.652 168.719,183 166.500,179.500 C 166.500,179.500 167,157.321 167,157.321 C 167,157.321 167.500,135.143 167.500,135.143 C 167.500,135.143 181.593,120.821 181.593,120.821 C 194.158,108.052 195.757,106.039 196.354,102.250 C 196.722,99.912 196.738,96.210 196.388,94.022 C 195.813,90.427 195.409,89.980 192.200,89.378 C 190.247,89.012 181.865,88.969 173.574,89.284 C 153.257,90.055 138.739,93.559 122.965,101.500 C 101.802,112.154 83.176,132.493 74.258,154.689 C 71.619,161.257 71.275,161.675 69.544,160.409 C 67.868,159.184 65.459,159.236 61.137,160.595 C 58.790,161.333 61.884,164 65.087,164 C 66.874,164 68.314,164.718 67.592,169.872 C 66.977,170.353 62.784,170.164 58,169.440 C 51.006,168.381 49.317,168.385 48.471,169.465 C 47.639,170.526 46.997,170.415 45.111,168.888 C 42.354,166.655 37.719,166.424 35.725,168.418 C 33.592,170.551 33.014,183.573 33.919,209.069 C 34.360,221.482 34.811,250.732 34.921,274.069 C 35.266,347.009 36.034,375.501 37.732,378.346 C 38.287,379.276 148.674,378.469 153.500,377.500M 220.831,169.572 C 220.831,169.572 220.500,156.144 220.500,156.144 C 220.500,156.144 235.750,140.691 235.750,140.691 C 244.137,132.192 251.045,124.397 251.099,123.369 C 251.153,122.341 251.311,119.475 251.449,117 C 251.587,114.525 251.359,111.818 250.941,110.985 C 249.983,109.075 242.517,104.817 241.648,105.686 C 241.292,106.042 241,109.593 241,113.577 C 241,113.577 241,120.821 241,120.821 C 241,120.821 226.250,136.007 226.250,136.007 C 218.137,144.360 211.194,151.938 210.820,152.847 C 209.944,154.978 209.947,171.172 210.824,176.956 C 211.528,181.598 212.943,182.648 218.831,182.900 C 218.831,182.900 221.162,183 221.162,183 C 221.162,183 220.831,169.572 220.831,169.572M 294.594,176.865 C 294.230,174.591 293.042,171.596 291.951,170.210 C 290.553,168.433 290.126,166.776 290.505,164.595 C 291.603,158.272 287.500,157.199 284.489,163.022 C 282.288,167.279 283.275,170.895 288.150,176.433 C 293.380,182.375 295.498,182.516 294.594,176.865M 202,164.437 C 202,164.437 202,148.873 202,148.873 C 202,148.873 216.940,133.658 216.940,133.658 C 232.061,118.259 234,115.521 234,109.560 C 234,102.518 232.918,99.993 229.244,98.458 C 223.349,95.995 223,96.281 223,103.566 C 223,107.177 222.492,111.115 221.871,112.316 C 221.250,113.517 214.838,120.464 207.621,127.754 C 200.404,135.044 193.748,142.469 192.828,144.254 C 191.394,147.037 191.236,149.741 191.720,163.204 C 192.336,180.364 192.033,179.644 198.750,179.884 C 198.750,179.884 202,180 202,180 C 202,180 202,164.437 202,164.437M 249.818,171.610 C 250.215,166.782 248.489,164.656 246.433,167.441 C 244.933,169.474 244.499,174.166 245.701,175.368 C 247.488,177.155 249.514,175.305 249.818,171.610M 280.664,174.433 C 280.995,173.571 280.753,172.353 280.126,171.726 C 278.719,170.319 275.384,173.194 276.441,174.904 C 277.439,176.519 279.972,176.237 280.664,174.433M 274.250,169.303 C 275.780,168.445 274.922,166.921 272.360,165.947 C 270.286,165.158 269.323,165.303 267.864,166.623 C 264.358,169.796 269.515,171.960 274.250,169.303M 298.891,158.118 C 297.051,156.678 295.086,155.500 294.523,155.500 C 292.944,155.500 293.313,158.194 295,158.983 C 295.825,159.369 297.400,160.152 298.500,160.724 C 302.065,162.577 302.330,160.809 298.891,158.118" stroke="#FFFED9" fill="#FFFED9" stroke-width="1" />
  <path id="1" d="M 180.439,505.811 C 132.519,481.743 88.113,451.674 58.900,423.513 C 58.900,423.513 50.194,415.120 50.194,415.120 C 50.194,415.120 55.347,414.606 55.347,414.606 C 58.181,414.323 94.925,413.619 137,413.041 C 179.075,412.463 241.514,411.468 275.752,410.830 C 309.990,410.192 338.340,410.010 338.752,410.426 C 339.164,410.842 334.775,415.758 329,421.351 C 310.107,439.647 283.149,460.125 254,478.320 C 239.476,487.386 207.011,505.359 197.939,509.357 C 197.939,509.357 192.379,511.807 192.379,511.807 C 192.379,511.807 180.439,505.811 180.439,505.811" stroke="#FFCC7F" fill="#FFCC7F" stroke-width="1" />
  <path id="62" d="M 37.732,378.347 C 36.033,375.501 35.266,347.019 34.921,274.069 C 34.811,250.732 34.360,221.482 33.919,209.069 C 33.014,183.573 33.592,170.551 35.725,168.418 C 37.719,166.424 42.354,166.655 45.111,168.888 C 46.997,170.415 47.639,170.526 48.471,169.465 C 49.317,168.385 51.006,168.381 58,169.440 C 63.941,170.340 66.897,170.413 67.820,169.683 C 68.901,168.828 68.992,169.801 68.320,175.069 C 67.100,184.634 67.574,197.697 69.392,204.644 C 72.621,216.981 71.910,219.528 58.918,242.183 C 51.899,254.423 50.693,257.203 50.604,261.344 C 50.514,265.567 50.877,266.487 53.440,268.532 C 55.057,269.822 59.557,271.634 63.440,272.557 C 73.664,274.988 74.629,275.805 75.430,282.693 C 79.711,319.515 83.303,330.608 92.500,335.411 C 95.909,337.191 98.273,337.500 108.500,337.500 C 115.100,337.500 125.779,336.909 132.230,336.186 C 145.603,334.688 148.100,335.268 151.204,340.600 C 153.106,343.867 156.627,361.743 157.176,370.917 C 157.491,376.184 157.417,376.358 154.500,377.194 C 150.530,378.332 38.384,379.439 37.732,378.347" stroke="#FFFFFF" fill="#FFFFFF" stroke-width="1" />
  <path id="61" d="M 165.321,325.750 C 165.321,325.750 162.250,322.500 162.250,322.500 C 162.250,322.500 161.601,286.225 161.601,286.225 C 161.601,286.225 160.953,249.950 167.296,251.975 C 168.125,252.722 169.670,329 168.856,329 C 168.601,329 167.010,327.538 165.321,325.750" stroke="#FD9965" fill="#FD9965" stroke-width="1" />
  <path id="61" d="M 213.627,374.470 C 213.282,373.572 213,363.874 213,352.920 C 213,352.920 213,333.004 213,333.004 C 213,333.004 203.642,322.945 203.642,322.945 C 203.642,322.945 194.283,312.885 194.283,312.885 C 194.283,312.885 193.769,282.192 193.769,282.192 C 193.398,260.080 193.568,251.294 194.377,250.765 C 194.995,250.361 197.188,250.023 199.250,250.015 C 199.250,250.015 203,250 203,250 C 203,250 203,259.842 203,259.842 C 203,265.255 203.296,275.855 203.658,283.398 C 203.658,283.398 204.315,297.113 204.315,297.113 C 204.315,297.113 206.908,297.634 206.908,297.634 C 214.100,299.079 218.513,308.296 214.532,313.559 C 212.233,316.599 212.700,318.302 216.984,322.485 C 219.175,324.625 221.392,327.754 221.909,329.438 C 222.426,331.122 222.771,342.175 222.675,354 C 222.675,354 222.500,375.500 222.500,375.500 C 222.500,375.500 218.377,375.801 218.377,375.801 C 215.294,376.026 214.096,375.691 213.627,374.470M 209.067,310.875 C 210.777,307.680 208.499,304 204.810,304 C 201.210,304 199.179,307.599 200.932,310.874 C 202.486,313.777 207.513,313.778 209.067,310.875" stroke="#FD9965" fill="#FD9965" stroke-width="1" />
  <path id="62" d="M 200.932,310.874 C 199.179,307.599 201.210,304 204.810,304 C 208.499,304 210.777,307.680 209.067,310.875 C 207.513,313.778 202.486,313.777 200.932,310.874" stroke="#FFFFFF" fill="#FFFFFF" stroke-width="1" />
  <path id="62" d="M 184.819,361.021 C 184.819,361.021 184.500,345.042 184.500,345.042 C 184.500,345.042 176.750,337.249 176.750,337.249 C 176.750,337.249 169,329.456 169,329.456 C 169,329.456 168.882,303.978 168.882,303.978 C 168.817,289.965 168.480,272.425 168.132,265 C 168.132,265 167.500,251.500 167.500,251.500 C 167.500,251.500 162.500,250.686 162.500,250.686 C 141.692,247.299 133.807,245.209 123.174,240.263 C 114.453,236.206 106.236,230.306 102.870,225.685 C 100.110,221.896 99.857,220.922 100.199,215.396 C 100.503,210.478 101.128,208.633 103.420,205.896 C 111.949,195.711 130.823,186.265 151.433,181.866 C 156.025,180.886 157.457,180.871 157.767,181.800 C 158.261,183.282 166.383,183.401 169.066,181.965 C 170.311,181.299 171,179.873 171,177.965 C 171.644,170.196 177.470,180.322 177.284,179 C 179.398,179 181.318,176.323 183.729,171.929 C 183.367,173.314 184.005,175.042 185.566,176.897 C 187.730,179.469 189.695,180.575 195.363,182.418 C 198.504,183.439 195.340,186 190.937,186 C 188.837,186 186.805,186.506 186.422,187.125 C 185.779,188.165 180.885,203.562 178.991,210.500 C 178.541,212.150 176.297,219.575 174.005,227 C 167.824,247.024 167.745,245 174.705,245 C 174.705,245 180.644,245 180.644,245 C 180.644,245 183.794,234.750 183.794,234.750 C 190.236,213.789 198,187.324 198,186.324 C 198,185.024 203.989,180 205.539,180 C 206.173,180 208.098,180.701 209.815,181.558 C 211.532,182.415 214.839,183.202 217.164,183.308 C 217.164,183.308 221.390,183.500 221.390,183.500 C 221.390,183.500 222.863,174.218 222.863,174.218 C 224.474,164.067 226.443,162.920 226.303,172.215 C 226.238,176.511 226.810,178.346 229.493,182.473 C 233.885,189.227 241.437,196.430 243.356,195.694 C 246.896,194.336 258.244,205.480 260.014,212.052 C 261.837,218.821 260.226,221.553 247.304,233.618 C 240.916,239.582 234.861,245.821 233.848,247.481 C 232.355,249.929 232.007,252.582 232.004,261.507 C 232.002,267.561 232.448,274.076 232.996,275.986 C 233.675,278.353 237.413,282.891 244.729,290.230 C 250.634,296.154 255.769,301 256.139,301 C 256.509,301 257.521,298.922 258.386,296.382 C 258.386,296.382 259.959,291.763 259.959,291.763 C 259.959,291.763 253.274,284.839 253.274,284.839 C 246.761,278.092 246.628,277.850 248.099,275.426 C 248.929,274.058 256.486,266.026 264.892,257.577 C 275.409,247.006 281.068,242.037 283.037,241.643 C 285.329,241.185 286.094,240.316 286.882,237.285 C 288.327,231.725 290.058,197.281 289.028,194.573 C 288.549,193.314 285.579,189.498 282.427,186.094 C 278.172,181.498 276.986,179.614 277.824,178.776 C 278.662,177.938 279.499,178.142 281.074,179.567 C 282.350,180.721 284.238,181.350 285.812,181.144 C 287.724,180.893 289.028,181.551 290.653,183.589 C 292.674,186.124 293.119,186.266 295.550,185.159 C 298.123,183.987 298.199,183.727 297.565,178.221 C 297.203,175.075 296.416,171.248 295.818,169.718 C 295.220,168.188 295.021,166.645 295.377,166.289 C 295.733,165.933 298.606,165.703 301.762,165.777 C 307.865,165.920 309.882,164.985 311.986,161.037 C 313.436,153.940 314.635,164.190 317.003,163 C 318.140,163 320.179,163.727 321.535,164.615 C 323.811,166.106 324.196,166.101 326.564,164.550 C 329.425,162.676 334.067,163.171 336.053,165.564 C 337.887,167.773 338.866,167.298 339.785,163.750 C 340.490,161.030 341.098,160.500 343.508,160.500 C 347.675,160.500 349.890,164.846 350.438,174.092 C 350.679,178.166 351.131,201.750 351.442,226.500 C 351.753,251.250 352.291,292.875 352.639,319 C 353.315,369.742 353.288,373.135 352.202,374.157 C 351.217,375.085 324.335,375.933 292.598,376.037 C 271.394,376.107 265.524,375.848 264.884,374.813 C 264.438,374.091 263.730,373.725 263.311,374 C 262.428,374.579 259.930,364.409 256.927,348.011 C 255.045,337.730 254.255,320.988 255.231,312.031 C 255.577,308.858 252.643,308.120 249.786,310.662 C 247.754,312.469 247.731,313.015 248.373,343.817 C 248.812,364.873 248.694,374.929 248.013,374.508 C 247.647,376.041 242.777,375.416 243,374.500 C 242.340,374.908 242,362.877 242,339.160 C 242,339.160 242,303.202 242,303.202 C 242,303.202 236.179,296.851 236.179,296.851 C 232.977,293.358 228.477,288.475 226.179,286 C 226.179,286 222,281.501 222,281.501 C 222,281.501 221.985,265 221.985,265 C 221.977,255.925 221.591,247.903 221.128,247.173 C 220.459,246.118 219.438,246.074 216.143,246.961 C 216.143,246.961 212,248.077 212,248.077 C 212,248.077 212,265.991 212,265.991 C 212,276.500 212.438,284.855 213.060,286.203 C 213.643,287.466 217.946,292.325 222.622,297 C 222.622,297 231.124,305.500 231.124,305.500 C 231.124,305.500 231.039,323.500 231.039,323.500 C 230.992,333.400 231.234,349.487 231.576,359.250 C 232.258,378.697 232.457,378.035 226.394,376.407 C 224.356,375.860 224.271,375.145 223.767,354.171 C 223.188,330.069 222.690,327.835 216.619,322.054 C 212.696,318.318 212.264,316.558 214.532,313.559 C 218.513,308.296 214.100,299.079 206.908,297.634 C 206.908,297.634 204.315,297.113 204.315,297.113 C 204.315,297.113 203.658,283.398 203.658,283.398 C 203.296,275.855 203,265.255 203,259.842 C 203,259.842 203,250 203,250 C 203,250 199.250,250.015 199.250,250.015 C 197.188,250.023 194.995,250.361 194.377,250.765 C 193.568,251.294 193.398,260.080 193.769,282.192 C 193.769,282.192 194.283,312.885 194.283,312.885 C 194.283,312.885 203.642,322.945 203.642,322.945 C 203.642,322.945 213,333.004 213,333.004 C 213,333.004 212.985,350.252 212.985,350.252 C 212.967,370.366 211.806,376.316 207.802,376.801 C 207.802,376.801 205.311,377.103 205.311,377.103 C 205.311,377.103 204.660,365.801 204.660,365.801 C 204.302,359.585 204.008,349.905 204.005,344.288 C 204.005,344.288 204,334.076 204,334.076 C 204,334.076 195,324.662 195,324.662 C 195,324.662 186,315.247 186,315.247 C 186,315.247 185.883,297.374 185.883,297.374 C 185.818,287.543 185.481,275.015 185.133,269.534 C 184.531,260.055 184.368,259.494 181.818,258.067 C 179.370,256.697 178.956,256.729 177.068,258.438 C 175.071,260.245 175,261.274 175,288.090 C 175,305.363 175.404,316.935 176.068,318.685 C 176.655,320.233 180.930,325.379 185.568,330.121 C 185.568,330.121 194,338.742 194,338.742 C 194,338.742 194,357.871 194,357.871 C 194,357.871 194,377 194,377 C 194,377 189.569,377 189.569,377 C 189.569,377 185.138,377 185.138,377 C 185.138,377 184.819,361.021 184.819,361.021M 155,234.161 C 155,228.754 154.796,228.230 152.250,227.098 C 146.240,224.425 133.006,216.440 133.003,215.485 C 133,214.640 139.279,210.452 152.750,202.313 C 154.583,201.206 155,200.063 155,196.144 C 155,193.498 154.721,191.054 154.380,190.713 C 152.845,189.178 129.644,203.107 121.087,210.701 C 117.804,213.615 116.883,215.053 117.355,216.534 C 118.132,218.971 132.262,228.687 144.401,235.131 C 149.406,237.788 153.837,239.970 154.250,239.981 C 154.663,239.992 155,237.373 155,234.161M 217.126,234.325 C 228.761,228.191 243.400,217.201 243.814,214.292 C 244.060,212.565 242.664,211.009 237.407,207.149 C 229.118,201.062 219.337,195.184 211.750,191.729 C 211.750,191.729 206,189.111 206,189.111 C 206,189.111 206.005,194.805 206.005,194.805 C 206.005,194.805 206.010,200.500 206.010,200.500 C 206.010,200.500 216.742,206.505 216.742,206.505 C 222.645,209.807 227.608,213.199 227.770,214.043 C 227.967,215.067 224.881,217.390 218.473,221.038 C 213.197,224.042 208.232,227.094 207.440,227.821 C 205.272,229.810 205.565,239 207.796,239 C 208.050,239 212.249,236.897 217.126,234.325" stroke="#FFFFFF" fill="#FFFFFF" stroke-width="1" />
  <path id="61" d="M 288.150,176.433 C 283.275,170.895 282.288,167.279 284.489,163.022 C 287.500,157.199 291.603,158.272 290.505,164.595 C 290.126,166.776 290.553,168.433 291.951,170.210 C 293.042,171.596 294.230,174.591 294.594,176.865 C 295.498,182.516 293.380,182.375 288.150,176.433" stroke="#FD9965" fill="#FD9965" stroke-width="1" />
  <path id="41" d="M 222.500,358.495 C 222.500,348.977 222.837,341.399 223.250,341.654 C 223.663,341.909 224,349.490 224,358.500 C 224,367.510 223.663,375.089 223.250,375.341 C 222.837,375.593 222.500,368.013 222.500,358.495" stroke="#FFE2CB" fill="#FFE2CB" stroke-width="1" />
  <path id="41" d="M 249.568,375.111 C 249.266,374.622 248.717,360.449 248.348,343.617 C 247.719,314.912 247.791,312.889 249.494,311.007 C 250.493,309.903 252.154,309 253.186,309 C 255.513,309 256.688,311.723 250.478,311.664 C 248.850,313.292 248.777,315.608 249.454,343.957 C 249.964,365.293 250.533,374.717 251.342,375.232 C 252.209,375.784 252.201,375.974 251.309,375.985 C 250.654,375.993 249.870,375.600 249.568,375.111" stroke="#FFE2CB" fill="#FFE2CB" stroke-width="1" />
  <path id="62" d="M 267.118,169.642 C 265.238,167.377 269.051,164.689 272.360,165.947 C 274.922,166.921 275.780,168.445 274.250,169.303 C 271.821,170.665 268.114,170.842 267.118,169.642" stroke="#FFFFFF" fill="#FFFFFF" stroke-width="1" />
  <path id="62" d="M 242.750,264.425 C 242.337,264.008 242,261.287 242,258.378 C 242,258.378 242,253.089 242,253.089 C 242,253.089 255.452,239.158 255.452,239.158 C 268.185,225.972 270.960,221.943 269.652,218.534 C 269.342,217.725 269.518,216.798 270.044,216.473 C 270.570,216.148 271,214.172 271,212.081 C 271,207.508 268.150,203.020 259.670,194.237 C 256.338,190.786 253.506,187.247 253.378,186.373 C 253.250,185.499 252.213,183.790 251.073,182.577 C 249.933,181.364 249,179.865 249,179.245 C 249,176.026 251.838,177.567 258.639,184.479 C 262.784,188.692 267.565,192.916 269.263,193.864 C 275.742,197.484 276.465,199.591 276.840,215.975 C 276.840,215.975 277.180,230.809 277.180,230.809 C 277.180,230.809 260.340,247.996 260.340,247.996 C 251.078,257.449 243.163,264.842 242.750,264.425" stroke="#FFFFFF" fill="#FFFFFF" stroke-width="1" />
  <path id="62" d="M 276.441,174.904 C 275.384,173.194 278.719,170.319 280.126,171.726 C 280.753,172.353 280.995,173.571 280.664,174.433 C 279.972,176.237 277.439,176.519 276.441,174.904" stroke="#FFFFFF" fill="#FFFFFF" stroke-width="1" />
  <path id="62" d="M 68.636,165.494 C 68.309,164.642 66.812,164 65.154,164 C 61.905,164 58.760,161.339 61.137,160.601 C 67.602,158.595 71,159.585 71,163.476 C 71,166.316 69.457,167.633 68.636,165.494" stroke="#FFFFFF" fill="#FFFFFF" stroke-width="1" />
  <path id="62" d="M 298.500,160.724 C 297.400,160.152 295.825,159.369 295,158.983 C 293.313,158.194 292.944,155.500 294.523,155.500 C 296.157,155.500 302.326,160.683 301.368,161.250 C 300.890,161.533 299.600,161.296 298.500,160.724" stroke="#FFFFFF" fill="#FFFFFF" stroke-width="1" />
  <path id="62" d="M 245.701,175.368 C 244.499,174.166 244.933,169.474 246.433,167.441 C 248.489,164.656 250.215,166.782 249.818,171.610 C 249.514,175.305 247.488,177.155 245.701,175.368" stroke="#FFFFFF" fill="#FFFFFF" stroke-width="1" />
  <path id="41" d="M 240.811,346.750 C 240.707,331.212 240.580,315.204 240.530,311.174 C 240.480,307.144 240.790,303.630 241.219,303.365 C 241.648,303.100 242,319.109 242,338.941 C 242,358.773 241.775,375 241.500,375 C 241.225,375 240.915,362.288 240.811,346.750" stroke="#FFE2CB" fill="#FFE2CB" stroke-width="1" />
  <path id="61" d="M 193.892,179.338 C 192.533,178.975 192.197,176.479 191.720,163.204 C 191.236,149.741 191.394,147.037 192.828,144.254 C 193.748,142.469 200.404,135.044 207.621,127.754 C 214.838,120.464 221.250,113.517 221.871,112.316 C 222.492,111.115 223,107.177 223,103.566 C 223,96.281 223.349,95.995 229.244,98.458 C 232.918,99.993 234,102.518 234,109.560 C 234,115.521 232.061,118.259 216.940,133.658 C 216.940,133.658 202,148.873 202,148.873 C 202,148.873 202,164.437 202,164.437 C 202,164.437 202,180 202,180 C 202,180 198.750,179.884 198.750,179.884 C 196.962,179.820 194.776,179.574 193.892,179.338" stroke="#FD9965" fill="#FD9965" stroke-width="1" />
  <path id="41" d="M 230,336.941 C 230,334.490 230.396,333.127 231,333.500 C 231.550,333.840 232,335.666 232,337.559 C 232,339.452 231.550,341 231,341 C 230.450,341 230,339.173 230,336.941" stroke="#FFE2CB" fill="#FFE2CB" stroke-width="1" />
  </g><g id="circuit pattern"><path id="1" d="M 22.143,379.695 C 16.215,371.052 10.346,357.870 6.694,345 C 4.577,337.538 4.564,336.792 4.259,199.335 C 4.259,199.335 3.953,61.171 3.953,61.171 C 3.953,61.171 7.226,60.151 7.226,60.151 C 13.419,58.222 67.523,40.824 85.500,34.980 C 95.400,31.762 117.675,24.556 135,18.968 C 152.325,13.380 172.460,6.868 179.743,4.497 C 179.743,4.497 192.985,0.187 192.985,0.187 C 192.985,0.187 198.243,2.017 198.243,2.017 C 201.135,3.024 217.675,8.412 235,13.991 C 252.325,19.570 274.600,26.767 284.500,29.983 C 294.400,33.199 315.325,39.956 331,44.997 C 346.675,50.038 364.450,55.813 370.500,57.831 C 370.500,57.831 381.500,61.500 381.500,61.500 C 381.500,61.500 381.776,191 381.776,191 C 381.941,268.343 381.666,324.326 381.095,330 C 379.873,342.137 376.203,354.609 370.014,367.665 C 370.014,367.665 365.115,378 365.115,378 C 365.115,378 360.057,378 360.057,378 C 360.057,378 355,378 355,378 C 355,378 354.981,351.750 354.981,351.750 C 354.971,337.312 354.754,321 354.500,315.500 C 354.246,310 353.795,278.275 353.497,245 C 352.838,171.409 351.318,88.660 350.405,76.688 C 350.013,71.545 349.180,67.323 348.406,66.549 C 347.400,65.543 343.510,65.284 332.290,65.474 C 324.155,65.612 288.250,66.016 252.500,66.371 C 216.750,66.726 183.675,67.237 179,67.506 C 174.325,67.775 139.675,68.248 102,68.559 C 64.325,68.870 32.938,69.307 32.250,69.531 C 30.164,70.209 30.737,169.041 33.833,342.960 C 33.833,342.960 34.500,380.421 34.500,380.421 C 34.500,380.421 37.500,381.028 37.500,381.028 C 39.150,381.362 56.250,381.300 75.500,380.890 C 124.622,379.843 145.570,379.842 144.450,380.886 C 143.928,381.373 118.975,382.055 89,382.401 C 59.025,382.747 32.367,383.223 29.760,383.460 C 25.143,383.879 24.946,383.782 22.143,379.695" stroke="#FFCC7F" fill="#FFCC7F" stroke-width="1" />
</g><g id="head silhouette 4"><path id="61" d="M 159.763,157.813 C 159.471,145.553 159.598,134.617 160.046,133.511 C 160.980,131.207 163.191,128.754 178.171,113.404 C 178.171,113.404 189,102.307 189,102.307 C 189,102.307 189,95.654 189,95.654 C 189,88.732 189.238,88.420 193.636,89.600 C 196.200,90.288 197.376,95.762 196.354,102.250 C 195.757,106.039 194.158,108.052 181.593,120.821 C 181.593,120.821 167.500,135.143 167.500,135.143 C 167.500,135.143 167,157.321 167,157.321 C 167,157.321 166.500,179.500 160.294,180.105 C 160.294,180.105 159.763,157.813 159.763,157.813" stroke="#FD9965" fill="#FD9965" stroke-width="1" />
  <path id="61" d="M 244.729,290.230 C 237.413,282.891 233.675,278.353 232.996,275.986 C 232.448,274.076 232.002,267.561 232.004,261.507 C 232.007,252.582 232.355,249.929 233.848,247.481 C 234.861,245.821 240.916,239.582 247.304,233.618 C 259.708,222.037 261.653,218.904 260.726,211.991 C 260.003,206.601 256.723,202.706 246.723,195.358 C 241.896,191.811 236.608,187.063 234.973,184.805 C 232.090,180.825 232,180.354 232,169.330 C 232,169.330 232,157.959 232,157.959 C 232,157.959 240.896,148.230 240.896,148.230 C 245.789,142.879 251.864,136.494 254.396,134.042 C 258.714,129.861 259,129.258 259,124.351 C 259,121.473 259.432,118.851 259.960,118.525 C 260.488,118.199 262.738,119.574 264.960,121.582 C 268.373,124.666 269,125.841 269,129.154 C 269,132.758 268.120,134.024 258.121,144.788 C 252.137,151.230 246.062,157.591 244.621,158.924 C 242.200,161.164 242,161.979 242,169.625 C 242,169.625 242,177.901 242,177.901 C 242,177.901 254.750,191.048 254.750,191.048 C 261.763,198.279 268.045,205.164 268.711,206.348 C 270.174,208.950 270.198,221.708 268.745,224.500 C 268.172,225.600 261.921,232.471 254.852,239.770 C 254.852,239.770 242,253.040 242,253.040 C 242,253.040 242,258.461 242,258.461 C 242,261.443 242.397,264.127 242.882,264.427 C 243.367,264.727 251.242,257.322 260.382,247.972 C 260.382,247.972 277,230.971 277,230.971 C 277,230.971 277,214.836 277,214.836 C 277,214.836 277,198.701 277,198.701 C 277,198.701 266.267,187.810 266.267,187.810 C 266.267,187.810 255.535,176.918 255.535,176.918 C 255.535,176.918 255.158,169.462 255.158,169.462 C 254.951,165.361 255.046,160.951 255.370,159.661 C 255.694,158.371 260.381,152.663 265.785,146.976 C 276.384,135.822 277.573,135.339 280.498,140.995 C 280.498,140.995 282.100,144.094 282.100,144.094 C 282.100,144.094 273.550,153.176 273.550,153.176 C 265.104,162.149 265,162.321 265,167.399 C 265,167.399 265,172.540 265,172.540 C 265,172.540 274.571,182.020 274.571,182.020 C 279.835,187.234 284.745,192.637 285.481,194.026 C 286.990,196.873 287.937,234.765 286.600,238.791 C 286.126,240.219 284.773,241.296 283.007,241.649 C 281.076,242.035 275.316,247.100 264.892,257.577 C 256.486,266.026 248.929,274.058 248.099,275.426 C 246.628,277.850 246.761,278.092 253.274,284.839 C 253.274,284.839 259.959,291.763 259.959,291.763 C 259.959,291.763 258.386,296.382 258.386,296.382 C 257.521,298.922 256.509,301 256.139,301 C 255.769,301 250.634,296.154 244.729,290.230" stroke="#FD9965" fill="#FD9965" stroke-width="1" />
  <path id="61" d="M 251.342,375.232 C 250.533,374.717 249.964,365.293 249.454,343.957 C 248.777,315.608 248.850,313.292 250.478,311.664 C 253.820,308.322 254.442,310.131 254.672,323.866 C 254.891,336.907 256.077,345.594 260.119,363.791 C 261.254,368.901 261.931,373.738 261.623,374.541 C 261.026,376.096 253.495,376.602 251.342,375.232" stroke="#FD9965" fill="#FD9965" stroke-width="1" />
  <path id="61" d="M 231.812,360.750 C 231.709,352.362 231.583,343.025 231.533,340 C 231.483,336.975 231.339,327.975 231.213,320 C 231.213,320 230.984,305.500 230.984,305.500 C 230.984,305.500 222.552,297 222.552,297 C 217.914,292.325 213.643,287.466 213.060,286.203 C 212.438,284.855 212,276.500 212,265.991 C 212,265.991 212,248.077 212,248.077 C 212,248.077 216.143,246.961 216.143,246.961 C 219.438,246.074 220.459,246.118 221.128,247.173 C 221.591,247.903 221.977,255.925 221.985,265 C 221.985,265 222,281.501 222,281.501 C 222,281.501 225.750,285.545 225.750,285.545 C 227.812,287.769 231.982,292.270 235.016,295.545 C 235.016,295.545 240.531,301.500 240.531,301.500 C 240.531,301.500 240.850,338.750 240.850,338.750 C 240.850,338.750 241.168,376 241.168,376 C 241.168,376 236.584,376 236.584,376 C 236.584,376 232,376 232,376 C 232,376 231.812,360.750 231.812,360.750" stroke="#FD9965" fill="#FD9965" stroke-width="1" />
  <path id="61" d="M 214,182.106 C 211.967,181.541 211.374,180.579 210.824,176.956 C 209.947,171.172 209.944,154.978 210.820,152.847 C 211.194,151.938 218.137,144.360 226.250,136.007 C 226.250,136.007 241,120.821 241,120.821 C 241,120.821 241,113.577 241,113.577 C 241,109.593 241.292,106.042 241.648,105.686 C 242.517,104.817 249.983,109.075 250.941,110.985 C 251.359,111.818 251.587,114.525 251.449,117 C 251.311,119.475 251.153,122.341 251.099,123.369 C 251.045,124.397 244.137,132.192 235.750,140.691 C 235.750,140.691 220.500,156.144 220.500,156.144 C 220.500,156.144 220.831,169.572 220.831,169.572 C 220.831,169.572 221.162,183 221.162,183 C 221.162,183 218.831,182.900 218.831,182.900 C 217.549,182.845 215.375,182.488 214,182.106" stroke="#FD9965" fill="#FD9965" stroke-width="1" />
  <path id="35" d="M 161.415,294 C 161.415,283.825 161.564,279.663 161.745,284.750 C 161.926,289.837 161.926,298.163 161.745,303.250 C 161.564,308.337 161.415,304.175 161.415,294" stroke="#8F513E" fill="#8F513E" stroke-width="1" />
  <path id="24" d="M 174.035,170.066 C 173.453,168.978 173,161.532 173,153.044 C 173,153.044 173,137.957 173,137.957 C 173,137.957 187.488,122.729 187.488,122.729 C 187.488,122.729 201.976,107.500 201.976,107.500 C 201.976,107.500 201.988,99.162 201.988,99.162 C 201.988,99.162 202,90.824 202,90.824 C 202,90.824 206.250,91.525 206.250,91.525 C 208.587,91.911 211.062,92.681 211.750,93.236 C 213.363,94.538 213.428,108.327 211.836,111.316 C 211.196,112.517 204.671,119.797 197.336,127.493 C 197.336,127.493 184,141.486 184,141.486 C 184,141.486 184,154.809 184,154.809 C 184,162.136 183.534,169.002 182.965,170.066 C 182.250,171.401 180.867,172 178.500,172 C 176.133,172 174.750,171.401 174.035,170.066" stroke="#0D0B09" fill="#0D0B09" stroke-width="1" />
  </g><g id="head silhouette 3"><path id="24" d="M 194.667,376.333 C 194.300,375.966 194,367.359 194,357.205 C 194,357.205 194,338.742 194,338.742 C 194,338.742 185.568,330.121 185.568,330.121 C 180.930,325.379 176.655,320.233 176.068,318.685 C 175.404,316.935 175,305.363 175,288.090 C 175,261.274 175.071,260.245 177.068,258.438 C 178.956,256.729 179.370,256.697 181.818,258.067 C 184.368,259.494 184.531,260.055 185.133,269.534 C 185.481,275.015 185.818,287.543 185.883,297.374 C 185.883,297.374 186,315.247 186,315.247 C 186,315.247 194.837,324.491 194.837,324.491 C 194.837,324.491 203.674,333.735 203.674,333.735 C 203.674,333.735 204.320,354.491 204.320,354.491 C 204.675,365.907 204.722,375.641 204.424,376.123 C 203.794,377.143 195.652,377.318 194.667,376.333" stroke="#0D0B09" fill="#0D0B09" stroke-width="1" />
  <path id="17" d="M 164.566,326.924 C 162.388,325.011 160.875,322.647 160.568,320.674 C 159.698,315.087 159.164,254.577 159.966,252.500 C 160.391,251.400 160.914,266.570 161.128,286.211 C 161.128,286.211 161.517,321.921 161.517,321.921 C 161.517,321.921 165.462,325.961 165.462,325.961 C 170.115,330.726 169.567,331.315 164.566,326.924" stroke="#210D08" fill="#210D08" stroke-width="1" />
  </g><g id="head silhouette 2"><path id="17" d="M 158.608,175.750 C 157.444,166.135 157.059,152.346 157.674,142.295 C 157.674,142.295 158.328,131.611 158.328,131.611 C 158.328,131.611 172.248,117.056 172.248,117.056 C 179.904,109.050 186.581,101.457 187.085,100.182 C 187.589,98.907 187.728,96.152 187.393,94.058 C 187.018,91.716 187.210,89.988 187.892,89.567 C 188.660,89.092 189,90.939 189,95.595 C 189,95.595 189,102.307 189,102.307 C 189,102.307 178.156,113.404 178.156,113.404 C 164.873,126.996 160.687,131.675 159.877,133.836 C 159.534,134.751 159.489,145.512 159.777,157.750 C 160.266,178.542 159.805,185.638 158.608,175.750" stroke="#210D08" fill="#210D08" stroke-width="1" />
  </g><g id="head silhouette 1"><path id="4" d="M 157.540,372.250 C 155.848,358.452 152.847,343.422 151.231,340.646 C 148.098,335.266 145.625,334.685 132.230,336.186 C 125.779,336.909 115.100,337.500 108.500,337.500 C 98.273,337.500 95.909,337.191 92.500,335.411 C 83.303,330.608 79.711,319.515 75.430,282.693 C 74.629,275.805 73.664,274.988 63.440,272.557 C 59.557,271.634 55.057,269.822 53.440,268.532 C 50.877,266.487 50.514,265.567 50.604,261.344 C 50.693,257.203 51.899,254.423 58.918,242.183 C 71.933,219.488 72.654,216.889 69.334,204.644 C 68.241,200.612 67.678,194.719 67.696,187.500 C 67.755,164.009 77.542,141.042 95.563,122.105 C 115.495,101.160 140.462,90.580 173,89.290 C 173,89.290 187.500,88.715 187.500,88.715 C 187.500,88.715 187.461,94.859 187.461,94.859 C 187.417,101.787 189.230,99.303 168.379,121 C 168.379,121 158.289,131.500 158.289,131.500 C 158.289,131.500 157.660,142.500 157.660,142.500 C 157.314,148.550 157.442,159.569 157.944,166.988 C 158.446,174.407 158.776,180.512 158.678,180.556 C 158.580,180.600 155.350,181.237 151.500,181.971 C 131.862,185.717 112.071,195.565 103.420,205.896 C 101.128,208.633 100.503,210.478 100.199,215.396 C 99.857,220.922 100.110,221.896 102.870,225.685 C 107.890,232.577 121.121,240.457 135.248,244.969 C 142.518,247.291 155.061,250 158.541,250 C 160.676,250 160.846,250.276 160.031,252.418 C 159.120,254.813 159.589,314.405 160.568,320.680 C 160.894,322.772 162.283,324.825 164.626,326.680 C 166.585,328.231 171.858,332.967 176.344,337.203 C 176.344,337.203 184.500,344.905 184.500,344.905 C 184.500,344.905 184.819,360.953 184.819,360.953 C 184.819,360.953 185.138,377 185.138,377 C 185.138,377 171.630,377 171.630,377 C 171.630,377 158.123,377 158.123,377 C 158.123,377 157.540,372.250 157.540,372.250" stroke="#000000" fill="#000000" stroke-width="1" />
  </g><g id="text 2"><path id="62" d="M 33,414.844 C 30.525,414.297 27.545,413.663 26.377,413.437 C 25.191,413.207 23.712,411.717 23.027,410.064 C 21.744,406.966 21.335,391.673 22.442,388.184 C 23.273,385.565 26.786,385.073 44.251,385.133 C 55.985,385.174 58.140,385.424 58.943,386.840 C 59.813,388.373 59.984,388.365 61.192,386.737 C 62.452,385.039 63.338,384.924 74,385.080 C 75.375,385.100 81.225,384.907 87,384.650 C 92.775,384.393 124.270,383.883 156.988,383.516 C 189.706,383.149 216.706,382.545 216.988,382.174 C 217.270,381.803 235.950,381.390 258.500,381.256 C 281.050,381.122 314.913,380.775 333.750,380.487 C 333.750,380.487 368,379.963 368,379.963 C 368,379.963 368,382.847 368,382.847 C 368,384.433 367.100,386.875 366,388.273 C 363.871,390.980 363.211,398.394 365,399.500 C 365.550,399.840 366,401.822 366,403.906 C 366,403.906 366,407.695 366,407.695 C 366,407.695 353.983,408.299 353.983,408.299 C 347.374,408.631 341.479,409.204 340.885,409.571 C 340.291,409.938 335.011,410.164 329.152,410.072 C 323.293,409.980 296,410.365 268.500,410.926 C 241,411.487 184.750,412.430 143.500,413.022 C 69.498,414.083 47.859,414.589 41,415.417 C 39.075,415.649 35.475,415.391 33,414.844M 57.762,406.731 C 61.756,406.753 65.279,406.359 65.590,405.855 C 65.901,405.351 67.649,405.219 69.473,405.561 C 75.187,406.633 79.216,402.616 76.175,391.775 C 74.803,390.403 68.333,390.128 63.900,391.253 C 61.147,391.952 59.600,391.913 58.646,391.121 C 57.800,390.419 55.531,390.239 52.593,390.642 C 48.460,391.208 47.825,391.623 47.334,394.079 C 42.064,396.737 43.262,391.748 41.761,393.192 C 41.013,390.331 38.223,391.292 36.843,394.886 C 37.779,403.140 31.017,390.200 31.079,391.566 C 31.079,391.566 29.504,395.336 29.504,395.336 C 28.638,397.409 27.663,400.432 27.339,402.053 C 26.191,408.807 34.910,401.509 34.597,404.080 C 35.522,404.847 37.340,405.336 38.639,405.166 C 40.674,406.954 46.702,406.954 48.334,407.386 C 49.525,407.004 53.768,406.709 57.762,406.731M 90,400.378 C 90,396.438 90.237,396 92.372,396 C 94.366,396 94.846,396.637 95.384,400 C 96.112,404.550 97.071,404.974 99.339,401.750 C 100.044,394.863 104.471,405.379 104.685,404.234 C 104.685,404.234 107.778,399.206 107.778,399.206 C 111.778,392.706 112.139,390.591 109.318,390.189 C 105.763,393.604 99.100,392.963 98.035,392.065 C 97.083,390.286 95.978,390 90.047,390 C 86.261,390 82.452,390.273 81.582,390.607 C 79.768,391.303 79.408,396.515 81.101,397.562 C 80.574,400.728 84.218,406.172 86.010,405.512 C 88.030,407.946 90,405.412 90,400.378M 118,403 C 118,402.450 119.125,402 125.250,403.820 C 128.290,403.388 128.547,400.443 126.053,394.624 C 124.182,390.259 123.763,389.898 120.909,390.186 C 118.145,390.465 117.537,391.154 115.401,396.420 C 112.424,403.760 112.427,404 115.500,404 C 116.875,404 118,403.550 118,403M 138.034,400.926 C 138.034,400.926 138.623,398.500 143.141,402.811 C 144.832,402.549 145.202,401.595 145.493,396.742 C 145.893,390.072 144.537,388.667 138.208,389.192 C 134.718,389.482 134.464,389.735 133.900,393.500 C 133.570,395.700 132.969,398.697 132.564,400.160 C 131.979,402.273 132.206,402.917 133.664,403.288 C 136.523,404.016 137.399,403.543 138.034,400.926M 159.363,402.005 C 160.487,400.923 159.277,399 157.472,399 C 152.905,395.941 163.475,391.442 156.411,389.451 C 151.234,390.422 151.279,390.378 150.471,395.255 C 150.084,397.590 149.386,400.229 148.919,401.119 C 148.452,402.009 148.389,403.056 148.779,403.446 C 149.648,404.315 158.169,403.154 159.363,402.005M 180.393,401.418 C 180.727,400.548 181,398.298 181,396.418 C 181,394.118 181.469,393 182.433,393 C 183.713,393 185.695,389.323 184.841,388.534 C 184.653,388.361 182.137,388.452 179.250,388.737 C 174.970,389.159 174,389.600 175.506,396.963 C 175.138,399.143 175.125,401.393 175.477,401.963 C 176.460,403.554 179.712,403.193 180.393,401.418M 195.462,401.652 C 197.457,400.193 196.809,398 194.382,398 C 189.747,398.434 197.919,387.887 194.750,388.370 C 193.512,388.702 191.730,388.978 190.789,388.986 C 189.122,388.999 188.241,391.212 186.503,399.750 C 185.847,402.973 185.873,403 189.729,403 C 191.868,403 194.448,402.394 195.462,401.652M 211.930,401.131 C 213.125,398.899 212.427,398 209.500,398 C 208.308,398 207.049,397.716 206.702,397.369 C 205.442,396.109 208.128,393 210.476,393 C 213.306,393 214.258,391.837 213.355,389.483 C 212.850,388.168 211.918,387.914 209.209,388.354 C 198.907,390.026 198.001,403 208.187,403 C 209.842,403 211.327,402.258 211.930,401.131M 223.650,399 C 224.452,394.991 227,395.039 227,399.063 C 227,401.917 227.222,402.105 230.250,401.813 C 233.487,401.501 233.501,401.477 233.759,395.500 C 233.901,392.200 233.640,388.922 233.179,388.216 C 232.066,386.513 229.326,387.644 228.692,390.069 C 228.020,392.640 225,392.584 225,390 C 225,386.732 221.652,387.634 219.593,391.457 C 218.569,393.358 217.589,396.508 217.414,398.457 C 217.115,401.792 217.270,402 220.073,402 C 222.581,402 223.145,401.527 223.650,399M 241,400.500 C 241,398.568 241.903,398.603 244.131,400.619 C 245.310,401.686 246.785,402.019 248.460,401.599 C 250.854,400.998 251,400.587 251,394.481 C 251,389.290 250.691,388 249.448,388 C 248.594,388 247.401,389.419 246.797,391.153 C 247.036,400.026 241.878,387.508 240.997,389 C 240.537,389 239.384,391.362 238.435,394.250 C 237.486,397.138 236.501,400.062 236.247,400.750 C 235.952,401.548 236.728,402 238.393,402 C 240.044,402 241,401.450 241,400.500M 267.027,400.308 C 270.406,397.995 270.967,397.006 270.985,393.321 C 271.005,389.245 268.723,387 264.563,387 C 259.530,387 256,390.305 256,395.016 C 256,401.242 261.679,403.968 267.027,400.308M 298.020,400.490 C 305.756,396.489 303.952,387 295.455,387 C 288.427,387 284.304,395.304 289,400 C 291.389,402.389 294.067,402.534 298.020,400.490M 318.370,399.750 C 319.579,395.238 319.234,394.734 315.423,395.449 C 312.103,396.072 311.869,395.954 312.173,393.810 C 312.402,392.195 313.478,391.212 315.750,390.543 C 317.853,389.924 319,388.953 319,387.793 C 319,384.674 312.436,385.410 308.923,388.923 C 304.492,393.354 305.115,398.271 310.400,400.572 C 315.095,402.616 317.673,402.350 318.370,399.750M 283.396,399.410 C 284.152,397.439 283.336,396 281.460,396 C 280.350,396 280.174,395.013 280.655,391.500 C 281.212,387.438 281.074,387 279.236,387 C 277.597,387 276.967,388.024 276.012,392.250 C 275.359,395.138 274.609,398.288 274.345,399.250 C 273.940,400.727 274.562,401 278.326,401 C 281.481,401 282.964,400.535 283.396,399.410M 338.875,400.375 C 341.042,399.942 342,399.175 342,397.875 C 339.588,395.341 338.264,391.029 340.031,390 C 342.005,390 343.823,387.490 342.678,386.345 C 342.365,386.032 340.424,386.174 338.364,386.661 C 334.926,387.474 334.513,387.954 333.329,392.523 C 331.049,401.319 331.433,401.863 338.875,400.375M 327.367,399.215 C 327.634,398.783 328.168,395.633 328.555,392.215 C 329.218,386.352 329.140,386 327.168,386 C 325.065,386 324.125,388.123 322.389,396.804 C 321.803,399.734 321.963,400 324.316,400 C 325.727,400 327.100,399.647 327.367,399.215M 354.777,398.443 C 357.356,396.636 357.615,394.755 355.521,393.017 C 354.416,392.100 354.301,391.306 355.067,389.874 C 356.359,387.461 355.493,386 352.770,386 C 350.518,386 347,388.638 348.386,395.656 C 346.472,396.364 345.043,397.888 345.015,399.250 C 344.987,400.638 352.533,400.015 354.777,398.443" stroke="#FFFFFF" fill="#FFFFFF" stroke-width="1" />
  </g><g id="shield"><path id="24" d="M 206.667,238.333 C 205.405,237.071 205.987,229.155 207.440,227.821 C 208.232,227.094 213.197,224.042 218.473,221.038 C 224.881,217.390 227.967,215.067 227.770,214.043 C 227.608,213.199 222.645,209.807 216.742,206.505 C 216.742,206.505 206.010,200.500 206.010,200.500 C 206.010,200.500 206.005,194.805 206.005,194.805 C 206.005,194.805 206,189.111 206,189.111 C 206,189.111 211.750,191.729 211.750,191.729 C 219.337,195.184 229.118,201.062 237.407,207.149 C 242.664,211.009 244.060,212.565 243.814,214.292 C 243.400,217.201 228.761,228.191 217.126,234.325 C 207.579,239.359 207.661,239.327 206.667,238.333" stroke="#0D0B09" fill="#0D0B09" stroke-width="1" />
  <path id="24" d="M 144.401,235.131 C 132.262,228.687 118.132,218.971 117.355,216.534 C 116.883,215.053 117.804,213.615 121.087,210.701 C 129.644,203.107 152.845,189.178 154.380,190.713 C 154.721,191.054 155,193.498 155,196.144 C 155,200.063 154.583,201.206 152.750,202.313 C 139.279,210.452 133,214.640 133.003,215.485 C 133.006,216.440 146.240,224.425 152.250,227.098 C 154.796,228.230 155,228.754 155,234.161 C 155,237.373 154.663,239.992 154.250,239.981 C 153.837,239.970 149.406,237.788 144.401,235.131" stroke="#0D0B09" fill="#0D0B09" stroke-width="1" />
  <path id="24" d="M 169.302,242.750 C 169.597,241.512 171.713,234.425 174.005,227 C 176.297,219.575 178.541,212.150 178.991,210.500 C 180.885,203.562 185.779,188.165 186.422,187.125 C 187.223,185.829 196.623,185.582 197.398,186.836 C 197.861,187.585 192.704,205.747 183.793,234.750 C 183.793,234.750 180.644,245 180.644,245 C 180.644,245 174.705,245 174.705,245 C 169.055,245 168.792,244.891 169.302,242.750" stroke="#0D0B09" fill="#0D0B09" stroke-width="1" />
  </g><g id="text 1"><path id="53" d="M 45.471,406.954 C 45.088,406.334 43.926,406.048 42.889,406.319 C 41.154,406.773 41.055,406.363 41.649,401.156 C 42.483,393.845 43.846,390.063 45.747,400.847 C 45.747,400.847 45.190,405 45.190,405 C 45.190,405 49.473,405 49.473,405 C 52.002,405 54.250,404.404 54.964,403.544 C 56.206,398.508 56.206,392.391 59.799,392.028 C 63.140,395.140 63.639,398.691 61.113,401.380 C 59.941,402.628 59.286,403.952 59.658,404.324 C 61.004,405.670 64.011,404.956 68.500,403 C 69.251,405.366 69.968,405.475 72.519,403.610 C 74.153,402.415 74.253,401.851 73.229,399.603 C 72.231,397.413 72.342,396.487 75.827,399.227 C 79.216,402.616 75.187,406.633 69.473,405.561 C 67.649,405.219 65.901,405.351 65.590,405.855 C 65.279,406.359 61.756,406.753 57.762,406.731 C 53.768,406.709 49.525,407.004 48.334,407.386 C 47.072,407.791 45.877,407.611 45.471,406.954" stroke="#9CA9B6" fill="#9CA9B6" stroke-width="1" />
  <path id="29" d="M 258.223,400.443 C 254.893,398.111 255.120,391.838 258.635,389.073 C 261.758,386.616 267.220,386.362 269.429,388.571 C 271.046,390.188 271.539,395.681 270.235,397.558 C 268.865,399.531 264.565,402 262.500,402 C 261.370,402 259.445,401.299 258.223,400.443M 265.500,393.500 C 265.500,390.522 261.596,390.819 261.170,393.830 C 260.895,395.769 261.231,396.105 263.170,395.830 C 264.723,395.610 265.500,394.833 265.500,393.500" stroke="#193A5A" fill="#193A5A" stroke-width="1" />
  <path id="29" d="M 236.247,400.750 C 236.501,400.062 237.486,397.138 238.435,394.250 C 239.384,391.362 240.537,389 240.997,389 C 243.820,390.770 247.029,396.515 246.797,391.153 C 247.401,389.419 248.594,388 249.448,388 C 250.691,388 251,389.290 251,394.481 C 251,400.587 250.854,400.998 248.460,401.599 C 246.785,402.019 245.310,401.686 244.131,400.619 C 241.903,398.603 241,398.568 241,400.500 C 241,401.450 240.044,402 238.393,402 C 236.728,402 235.952,401.548 236.247,400.750" stroke="#193A5A" fill="#193A5A" stroke-width="1" />
  <path id="29" d="M 203.223,401.443 C 200.154,399.293 200.221,394.081 203.357,391.135 C 206.534,388.151 212.467,387.170 213.355,389.483 C 214.258,391.837 213.306,393 210.476,393 C 208.128,393 205.442,396.109 211.930,401.131 C 210.698,403.433 206.290,403.591 203.223,401.443" stroke="#193A5A" fill="#193A5A" stroke-width="1" />
  <path id="29" d="M 113,403.170 C 113,402.713 114.080,399.676 115.401,396.420 C 117.537,391.154 118.145,390.465 120.909,390.186 C 123.763,389.898 124.182,390.259 126.053,394.624 C 128.547,400.443 128.290,403.388 125.250,403.820 C 124.012,403.996 123,403.658 123,403.070 C 123,402.482 121.875,402 120.500,402 C 119.125,402 118,402.450 118,403 C 118,403.550 116.875,404 115.500,404 C 114.125,404 113,403.627 113,403.170" stroke="#193A5A" fill="#193A5A" stroke-width="1" />
  <path id="29" d="M 81.385,402.250 C 82.983,396.873 83.152,395 82.039,395 C 81.389,395 81.004,393.991 81.180,392.750 C 81.460,390.782 82.173,390.461 86.879,390.193 C 91.521,389.928 92.172,390.111 91.629,391.525 C 92.226,394.809 87.960,393.802 88,397.418 C 88,402.625 87.129,404 83.826,404 C 81.475,404 80.972,403.640 81.385,402.250" stroke="#193A5A" fill="#193A5A" stroke-width="1" />
  <path id="29" d="M 34.603,404.174 C 33.362,402.933 32.750,402.850 27.339,402.053 C 27.663,400.432 28.638,397.409 29.504,395.336 C 29.504,395.336 31.079,391.566 31.079,391.566 C 32.666,393.544 37.822,399.973 36.843,394.886 C 37.844,392.278 40.269,390.603 41.402,391.736 C 42.252,392.586 42.116,402.284 41.235,403.588 C 39.933,405.516 36.269,405.840 34.603,404.174" stroke="#193A5A" fill="#193A5A" stroke-width="1" />
  <path id="29" d="M 95.155,399.750 C 94.601,397.413 93.839,394.493 93.461,393.262 C 92.457,389.996 95.717,388.974 97.902,391.870 C 100.669,394.648 107.699,391.382 109.318,390.189 C 112.139,390.591 111.778,392.706 107.778,399.206 C 107.778,399.206 104.685,404.234 104.685,404.234 C 103.430,402.656 99.353,397.527 99.339,401.750 C 97.087,404.952 96.298,404.575 95.155,399.750" stroke="#193A5A" fill="#193A5A" stroke-width="1" />
  <path id="29" d="M 217.414,398.457 C 217.589,396.508 218.569,393.358 219.593,391.457 C 221.652,387.634 225,386.732 225,390 C 225,392.584 228.020,392.640 228.692,390.069 C 229.326,387.644 232.066,386.513 233.179,388.216 C 233.640,388.922 233.901,392.200 233.759,395.500 C 233.501,401.477 233.487,401.501 230.250,401.813 C 227.222,402.105 227,401.917 227,399.063 C 227,395.039 224.452,394.991 223.650,399 C 223.145,401.527 222.581,402 220.073,402 C 217.270,402 217.115,401.792 217.414,398.457" stroke="#193A5A" fill="#193A5A" stroke-width="1" />
  <path id="29" d="M 45.628,401.750 C 47.357,392.030 47.795,391.243 51.759,390.763 C 55.309,390.333 57.450,391.463 56.375,393.202 C 48.422,393.859 53.894,400.637 54.964,403.544 C 54.245,404.411 51.994,405 49.403,405 C 49.403,405 45.050,405 45.050,405 C 45.050,405 45.628,401.750 45.628,401.750" stroke="#193A5A" fill="#193A5A" stroke-width="1" />
  <path id="29" d="M 289,400 C 284.304,395.304 288.427,387 295.455,387 C 303.952,387 305.756,396.489 298.020,400.490 C 294.067,402.534 291.389,402.389 289,400M 296.500,393.486 C 296.500,390.688 293.571,390.998 293.169,393.839 C 292.912,395.653 293.249,396.098 294.669,395.825 C 295.711,395.624 296.500,394.616 296.500,393.486" stroke="#193A5A" fill="#193A5A" stroke-width="1" />
  <path id="29" d="M 186.503,399.750 C 188.241,391.212 189.122,388.999 190.789,388.986 C 191.730,388.978 193.512,388.702 194.750,388.370 C 198.113,390.285 190.381,400.167 195.462,401.652 C 194.448,402.394 191.868,403 189.729,403 C 185.873,403 185.847,402.973 186.503,399.750" stroke="#193A5A" fill="#193A5A" stroke-width="1" />
  <path id="29" d="M 133.664,403.288 C 132.206,402.917 131.979,402.273 132.564,400.160 C 132.969,398.697 133.570,395.700 133.900,393.500 C 134.464,389.735 134.718,389.482 138.208,389.192 C 144.537,388.667 145.893,390.072 145.493,396.742 C 145.202,401.595 144.832,402.549 143.141,402.811 C 138.623,401.841 138.623,396.470 138.034,400.926 C 137.399,403.543 136.523,404.016 133.664,403.288" stroke="#193A5A" fill="#193A5A" stroke-width="1" />
  <path id="29" d="M 322.389,396.804 C 324.125,388.123 325.065,386 327.168,386 C 329.140,386 329.218,386.352 328.555,392.215 C 327.705,399.728 327.557,400 324.316,400 C 321.963,400 321.803,399.734 322.389,396.804" stroke="#193A5A" fill="#193A5A" stroke-width="1" />
  <path id="29" d="M 175.477,401.963 C 175.125,401.393 175.138,399.143 174,391.127 C 174,389.600 174.970,389.159 179.250,388.737 C 182.137,388.452 184.653,388.361 184.841,388.534 C 185.695,389.323 183.713,393 182.433,393 C 181.469,393 181,394.118 181,396.418 C 181,398.298 180.727,400.548 180.393,401.418 C 179.712,403.193 176.460,403.554 175.477,401.963" stroke="#193A5A" fill="#193A5A" stroke-width="1" />
  <path id="29" d="M 274.345,399.250 C 274.609,398.288 275.359,395.138 276.012,392.250 C 276.967,388.024 277.597,387 279.236,387 C 281.074,387 281.212,387.438 280.655,391.500 C 280.174,395.013 280.350,396 281.460,396 C 283.336,396 284.152,397.439 283.396,399.410 C 282.964,400.535 281.481,401 278.326,401 C 274.562,401 273.940,400.727 274.345,399.250" stroke="#193A5A" fill="#193A5A" stroke-width="1" />
  <path id="29" d="M 59.658,404.324 C 59.286,403.952 59.978,402.587 61.197,401.290 C 63.168,399.192 63.280,398.581 62.218,395.767 C 61.280,393.283 61.290,392.434 62.262,391.817 C 64.246,390.557 65.824,390.871 73.291,390.558 C 75.388,391.363 75.417,391.961 73.491,394.710 C 72.251,396.480 72.199,397.343 73.201,399.542 C 74.258,401.863 74.167,402.405 72.519,403.610 C 69.968,405.475 69.251,405.366 65.232,403 C 64.011,404.956 61.004,405.670 59.658,404.324" stroke="#193A5A" fill="#193A5A" stroke-width="1" />
  <path id="29" d="M 148.779,403.446 C 148.389,403.056 148.452,402.009 148.919,401.119 C 149.386,400.229 150.084,397.590 150.471,395.255 C 151.279,390.378 151.234,390.422 156.411,389.451 C 166.018,392.351 151.516,398.506 159.363,402.005 C 158.169,403.154 149.648,404.315 148.779,403.446" stroke="#193A5A" fill="#193A5A" stroke-width="1" />
  <path id="29" d="M 310.400,400.572 C 305.115,398.271 304.492,393.354 308.923,388.923 C 312.436,385.410 319,384.674 319,387.793 C 319,388.953 317.853,389.924 315.750,390.543 C 313.478,391.212 312.402,392.195 312.173,393.810 C 311.869,395.954 312.103,396.072 315.423,395.449 C 319.234,394.734 319.579,395.238 318.370,399.750 C 317.673,402.350 315.095,402.616 310.400,400.572" stroke="#193A5A" fill="#193A5A" stroke-width="1" />
  <path id="29" d="M 332.019,399.250 C 332.030,398.288 332.619,395.260 333.329,392.523 C 334.513,387.954 334.926,387.474 338.364,386.661 C 340.424,386.174 342.365,386.032 342.678,386.345 C 343.823,387.490 342.005,390 340.031,390 C 335.275,391.744 342.238,396.660 342,397.875 C 342,399.175 341.042,399.942 338.875,400.375 C 333.700,401.410 331.998,401.131 332.019,399.250" stroke="#193A5A" fill="#193A5A" stroke-width="1" />
  <path id="62" d="M 261.170,393.830 C 261.390,392.277 262.167,391.500 263.500,391.500 C 266.478,391.500 266.181,395.404 263.170,395.830 C 261.231,396.105 260.895,395.769 261.170,393.830" stroke="#FFFFFF" fill="#FFFFFF" stroke-width="1" />
  <path id="53" d="M 86.240,405.840 C 85.424,405.024 85.511,404.346 86.564,403.293 C 87.354,402.503 88,400.090 88,397.929 C 88,395.186 88.433,394 89.433,394 C 90.765,389.164 95.374,394.838 91.856,396 C 90.330,396 90,396.780 90,400.378 C 90,405.102 88.166,407.766 86.240,405.840" stroke="#9CA9B6" fill="#9CA9B6" stroke-width="1" />
  <path id="53" d="M 80.667,397.333 C 80.300,396.966 80.061,395.279 80.136,393.583 C 80.240,391.227 80.375,391.031 80.706,392.750 C 80.944,393.987 81.558,395 82.070,395 C 82.582,395 83,395.675 83,396.500 C 83,398.062 81.818,398.484 80.667,397.333" stroke="#9CA9B6" fill="#9CA9B6" stroke-width="1" />
  <path id="62" d="M 293.169,393.839 C 293.351,392.553 294.175,391.500 295,391.500 C 297.169,391.500 296.870,395.401 294.669,395.825 C 293.249,396.098 292.912,395.653 293.169,393.839" stroke="#FFFFFF" fill="#FFFFFF" stroke-width="1" />
  <path id="53" d="M 66.651,392.532 C 65.946,390.694 67.820,389.420 69.200,390.800 C 70.267,391.867 69.500,394 68.048,394 C 67.589,394 66.961,393.339 66.651,392.532" stroke="#9CA9B6" fill="#9CA9B6" stroke-width="1" />
  <path id="29" d="M 345.015,399.250 C 345.043,397.888 346.472,396.364 347,390.326 C 347,388.638 350.518,386 352.770,386 C 355.493,386 356.359,387.461 355.067,389.874 C 354.301,391.306 354.416,392.100 355.521,393.017 C 357.615,394.755 357.356,396.636 354.777,398.443 C 352.533,400.015 344.987,400.638 345.015,399.250" stroke="#193A5A" fill="#193A5A" stroke-width="1" />
  </g></svg>